<?xml version="1.0" encoding="utf-8"?>
<!-- Generator: Adobe Illustrator 15.0.1, SVG Export Plug-In . SVG Version: 6.00 Build 0)  -->
<!DOCTYPE svg PUBLIC "-//W3C//DTD SVG 1.1//EN" "http://www.w3.org/Graphics/SVG/1.1/DTD/svg11.dtd">
<svg version="1.1" id="Layer_1" xmlns="http://www.w3.org/2000/svg" xmlns:xlink="http://www.w3.org/1999/xlink" x="0px" y="0px"
	 width="151px" height="122px" viewBox="0 0 151 122" enable-background="new 0 0 151 122" xml:space="preserve">
<g>
	<path fill="#FFFFFF" d="M1.1,12.6l28,8.4c0.1-0.5,0.1-1,0.2-1.4c0.6-3.7,1.5-7.3,2.6-10.7c-7.1-0.3-13.1-0.3-16.8-0.1
		C13.2,9.1,4.3,10.1,1.1,12.6L1.1,12.6z"/>
	<path fill="#FFFFFF" d="M91.3,86.3l23.101,30c2.6,1.4,11.199-0.1,14.3-7.2c0,0,2.399-5.399,6.6-33.8c4.101-28,3.7-35.2,3.7-35.2
		c-0.3-2,0.2-3.9,0-5.4c-0.1,0.9-0.2,1.7-0.3,2.6C134.7,63.4,114.9,82.8,91.3,86.3z"/>
	<path fill="#FFFFFF" d="M29.2,21.1l3.8,1.2c0.1-0.7,0.2-1.3,0.3-2c0.6-3.9,1.6-7.6,2.9-11.1C34.7,9.1,33.3,9,32,9
		c-1.2,3.4-2.1,7-2.6,10.7C29.3,20.1,29.2,20.6,29.2,21.1z"/>
	<path fill="#FFFFFF" d="M88.3,82.5l2.9,3.8c23.6-3.5,43.399-22.899,47.399-49c0.101-0.9,0.2-1.7,0.301-2.6
		c-0.101-0.9-0.4-1.6-1.4-2c0,0-0.8-0.2-2.4-0.6c-0.1,1.5-0.3,3-0.5,4.5C130.9,61.8,111.3,80.2,88.3,82.5z"/>
	<path fill="#EEEEEE" d="M33,22.2l3.8,1.2c0.1-0.8,0.2-1.7,0.3-2.5c0.6-4,1.7-7.9,3.1-11.5c-1.4-0.1-2.8-0.2-4.2-0.3
		c-1.3,3.5-2.3,7.2-2.9,11.1C33.2,20.9,33.1,21.6,33,22.2z"/>
	<path fill="#EEEEEE" d="M85.3,78.5l3.101,4c23-2.2,42.6-20.7,46.399-45.8c0.2-1.5,0.4-3,0.5-4.5c-1-0.2-2.3-0.5-3.899-0.9
		c-0.101,1.6-0.301,3.2-0.5,4.7C127.2,60.2,107.6,77.7,85.3,78.5z"/>
	<path fill="#DDDDDD" d="M82.1,74.3l3.2,4.2c22.4-0.8,41.9-18.3,45.601-42.5c0.199-1.6,0.399-3.2,0.5-4.7c-1.2-0.2-2.5-0.5-3.9-0.8
		c-0.1,1.6-0.2,3.3-0.5,4.9C123.4,58.7,103.8,75.2,82.1,74.3z"/>
	<path fill="#DDDDDD" d="M36.8,23.4l3.9,1.2c0.1-1,0.2-2,0.4-3c0.6-4.2,1.8-8.1,3.4-11.8c-1.4-0.1-2.8-0.2-4.2-0.3
		c-1.4,3.6-2.5,7.5-3.1,11.5C37,21.7,36.9,22.6,36.8,23.4z"/>
	<path fill="#CCCBCC" d="M40.7,24.6l3.9,1.2c0.1-1.2,0.2-2.4,0.4-3.6c0.7-4.3,1.9-8.4,3.7-12.1c-1.4-0.1-2.8-0.2-4.2-0.4
		c-1.6,3.7-2.8,7.6-3.4,11.8C40.9,22.5,40.8,23.5,40.7,24.6z"/>
	<path fill="#CCCBCC" d="M78.6,69.8l3.5,4.5C103.9,75.1,123.4,58.6,127,35.4c0.3-1.6,0.4-3.3,0.5-4.9c-1.2-0.2-2.5-0.5-3.9-0.8
		c-0.1,1.7-0.199,3.3-0.5,5C119.6,57.2,99.8,72.7,78.6,69.8z"/>
	<path fill="#BBBABA" d="M78.3,65.6c-1.2-0.199-2.4-0.5-3.6-0.8l3.899,5c21.2,2.9,41-12.6,44.5-35.1c0.301-1.7,0.4-3.4,0.5-5
		c-1.199-0.2-2.6-0.5-3.899-0.7c0,1.7-0.2,3.4-0.4,5.1C116,54.6,97.7,68.7,78.3,65.6z"/>
	<path fill="#BBBABA" d="M44.6,25.7h0.1l3.8,4.9c-0.1-2.6,0-5.2,0.4-7.9c0.7-4.4,2.1-8.6,4-12.3c-1.4-0.1-2.8-0.3-4.2-0.4
		c-1.8,3.7-3,7.8-3.7,12.1C44.8,23.4,44.7,24.5,44.6,25.7z"/>
	<path fill="#AAA9A9" d="M115.2,33.5c-2.8,18.2-19,30.8-36.3,28c-3.3-0.5-6.3-1.6-9.101-3l4.9,6.4c1.2,0.3,2.399,0.6,3.6,0.8
		c19.4,3.1,37.7-11,40.8-31.5c0.301-1.7,0.4-3.4,0.4-5.1c-1.3-0.2-2.6-0.4-3.9-0.7C115.6,30,115.5,31.7,115.2,33.5z"/>
	<path fill="#AAA9A9" d="M48.5,30.7l4.9,6.4c-1-4.3-1.3-8.9-0.6-13.6c0.7-4.6,2.2-8.8,4.4-12.5c-1.4-0.2-2.9-0.3-4.3-0.5
		c-2,3.7-3.4,7.9-4,12.3C48.5,25.4,48.3,28.1,48.5,30.7z"/>
	<path fill="#999898" d="M53.4,37l16.5,21.4c2.8,1.5,5.9,2.5,9.1,3c17.2,2.8,33.5-9.7,36.3-28c0.3-1.7,0.4-3.4,0.4-5.1
		c-1.3-0.2-2.601-0.4-4-0.6c0,1.7-0.101,3.4-0.3,5.1C109,48.7,94.7,59.7,79.6,57.3C64.5,54.9,54.2,40,56.7,24
		c0.7-4.7,2.5-8.9,4.9-12.5c-1.4-0.2-2.9-0.4-4.4-0.6c-2.2,3.7-3.7,7.9-4.4,12.5C52.1,28.1,52.3,32.7,53.4,37z"/>
	<path fill="#898687" d="M79.6,57.3C94.7,59.7,108.9,48.8,111.4,32.8c0.3-1.7,0.399-3.4,0.3-5.1c-1.3-0.2-2.601-0.4-4-0.6
		c0.1,1.7,0,3.3-0.3,5C105.3,45.8,93.1,55.2,80.2,53.1C67.3,51,58.5,38.2,60.6,24.6c0.7-4.8,2.7-9.1,5.5-12.5
		c-1.5-0.2-3-0.5-4.5-0.7c-2.5,3.6-4.2,7.9-4.9,12.5C54.2,40,64.5,54.9,79.6,57.3z"/>
	<path fill="#787576" d="M80.2,53.2c12.899,2.1,25.1-7.3,27.2-21c0.3-1.7,0.399-3.4,0.3-5c-1.3-0.2-2.7-0.3-4-0.5
		c0.1,1.6,0.1,3.3-0.2,4.9C101.8,43,91.6,50.8,80.9,49.1C70.2,47.4,62.8,36.7,64.5,25.3c0.8-4.9,3.1-9.2,6.4-12.3
		c-1.5-0.3-3.1-0.6-4.7-0.8c-2.8,3.4-4.8,7.7-5.5,12.5C58.5,38.3,67.3,51.1,80.2,53.2z"/>
	<path fill="#676465" d="M80.9,49.1C91.7,50.8,101.8,43,103.6,31.6c0.301-1.7,0.301-3.3,0.2-4.9c-1.3-0.2-2.7-0.3-4-0.4
		c0.2,1.5,0.2,3.1-0.1,4.7c-1.4,9.1-9.5,15.4-18.101,14C73,43.6,67,35,68.4,25.9c0.8-5.1,3.7-9.3,7.6-11.8c-1.6-0.4-3.3-0.8-5.1-1.1
		c-3.3,3.1-5.6,7.4-6.4,12.3C62.8,36.7,70.1,47.3,80.9,49.1z"/>
	<path fill="#565353" d="M68.4,25.9c-1.4,9.1,4.5,17.6,13.1,19c8.6,1.4,16.7-4.9,18.1-14c0.2-1.6,0.301-3.2,0.101-4.7
		c-1.3-0.1-2.7-0.3-4.101-0.4c0.301,1.4,0.301,3,0.101,4.5c-1,6.8-7.101,11.5-13.601,10.5c-6.5-1-10.899-7.4-9.8-14.3
		c0.8-5.4,4.9-9.5,9.7-10.4c-1.5-0.7-3.6-1.4-6-2C72.1,16.6,69.2,20.8,68.4,25.9z"/>
	<path fill="#454142" d="M72.3,26.6c-1,6.8,3.3,13.2,9.8,14.3C88.6,42,94.7,37.2,95.7,30.4c0.2-1.5,0.2-3.1-0.101-4.5
		c-1.399-0.1-2.8-0.2-4.199-0.3c0.5,1.3,0.6,2.7,0.399,4.2c-0.7,4.6-4.8,7.7-9.1,7c-4.3-0.7-7.2-4.9-6.5-9.5c0.7-4.6,4.8-7.7,9.1-7
		c0.101,0,0.3,0.1,0.4,0.1c-0.2-0.6-0.5-1.3-0.8-2c-0.4-0.8-1.4-1.5-2.801-2.1C77.2,17.1,73.1,21.1,72.3,26.6z"/>
	<path fill="#343031" d="M76.2,27.2c-0.7,4.6,2.2,8.8,6.5,9.5c4.3,0.7,8.399-2.4,9.1-7c0.2-1.5,0.101-2.9-0.399-4.2
		c-1.601-0.1-3.301-0.2-4.9-0.3c1.1,0.9,1.6,2.3,1.4,3.9c-0.301,2.3-2.4,3.8-4.5,3.5C81.3,32.3,79.8,30.1,80.1,27.8
		c0.4-2.3,2.4-3.8,4.5-3.5c0.7,0.1,1.2,0.4,1.7,0.8c0-0.4,0.2-2.1-0.7-4.8c-0.1,0-0.3-0.1-0.399-0.1C81,19.5,76.9,22.6,76.2,27.2z"
		/>
	<path fill="#231F20" d="M80.1,27.8c-0.3,2.3,1.101,4.4,3.301,4.8c2.199,0.4,4.199-1.2,4.5-3.5c0.199-1.5-0.4-3-1.4-3.9h-0.1
		c0,0,0,0,0-0.1c-0.5-0.4-1.101-0.7-1.7-0.8C82.5,24,80.5,25.5,80.1,27.8z"/>
</g>
<g>
	<path fill="#231F20" d="M124.9,114.1c-3.101,0.4-6.301,0.601-9.5,0.7c-0.301,2-0.5,3.101-0.5,3.101
		C118.3,118.2,122.1,116.3,124.9,114.1z"/>
	<path fill="#343031" d="M129.3,109.5c0,0,0.4-0.6,1.101-2.3c-0.101,0-0.2,0.1-0.301,0.1c-4.5,0.9-9,1.4-13.6,1.5
		c-0.4,2.4-0.7,4.5-1,6c3.2-0.1,6.4-0.3,9.5-0.7C127.1,112.4,128.8,110.6,129.3,109.5z"/>
	<path fill="#454142" d="M130.4,107.1c0.6-1.399,1.3-3.5,2.199-6.6c-1.199,0.3-2.3,0.6-3.5,0.8c-3.8,0.8-7.699,1.2-11.699,1.4
		c-0.4,2.2-0.7,4.2-1,6c4.6-0.101,9.199-0.7,13.6-1.5C130.1,107.2,130.2,107.2,130.4,107.1z"/>
	<path fill="#565353" d="M132.6,100.5c0.5-1.8,1.101-4,1.7-6.6c-2,0.6-4.1,1.1-6.2,1.5c-3.199,0.6-6.399,1-9.699,1.199
		c-0.301,2.101-0.7,4.2-1,6.101c3.899-0.2,7.899-0.601,11.699-1.4C130.2,101.1,131.4,100.8,132.6,100.5z"/>
	<path fill="#676465" d="M134.3,93.9c0.5-2,0.9-4.2,1.4-6.7c-2.8,0.899-5.7,1.7-8.601,2.3c-2.5,0.5-5.1,0.8-7.8,1.1
		c-0.3,2.101-0.7,4.101-1,6.101c3.3-0.2,6.5-0.601,9.7-1.2C130.1,95,132.2,94.5,134.3,93.9z"/>
	<path fill="#787576" d="M135.7,87.2c0.399-2.101,0.8-4.3,1.2-6.8C133.4,81.8,129.8,82.9,126.1,83.6c-1.899,0.4-3.8,0.7-5.8,0.801
		c-0.3,2.1-0.7,4.1-1,6.1c2.601-0.2,5.2-0.5,7.8-1.1C130,89,132.8,88.2,135.7,87.2z"/>
	<path fill="#898687" d="M136.9,80.5c0.3-2,0.699-4.1,1-6.4c0-0.199,0-0.3,0.1-0.5c-4.1,1.9-8.4,3.301-12.9,4.2
		c-1.3,0.2-2.5,0.4-3.8,0.601c-0.3,2-0.7,4.1-1,6.1c1.9-0.2,3.9-0.5,5.8-0.8C129.8,82.9,133.4,81.8,136.9,80.5z"/>
	<path fill="#999898" d="M138,73.6c0.4-2.6,0.7-4.899,1.1-7.1c-4.699,2.5-9.699,4.4-15,5.4c-0.6,0.1-1.199,0.199-1.8,0.3
		c-0.3,2-0.7,4.1-1,6.2c1.3-0.2,2.5-0.4,3.8-0.601C129.5,76.9,133.8,75.4,138,73.6z"/>
	<path fill="#AAA9A9" d="M139,66.4c0.4-2.801,0.8-5.3,1.1-7.601c-5.1,3.4-10.899,5.8-16.899,7c-0.3,2-0.7,4.101-1,6.2
		c0.6-0.1,1.2-0.2,1.8-0.3C129.3,70.8,134.3,69,139,66.4z"/>
	<path fill="#BBBABA" d="M141.5,50.6c-1.3,1.1-2.6,2.1-4,3.1c-4,2.7-8.5,4.7-13.1,5.9c-0.301,2-0.7,4.1-1,6.4
		c6-1.2,11.8-3.6,16.899-7C140.7,55.5,141.1,52.8,141.5,50.6z"/>
	<path fill="#CCCBCC" d="M141.5,50.6c0.9-5.5,1.3-8.1,1.5-9.8c-2.5,3.1-5.3,5.7-8.5,7.9c-2.8,1.9-5.9,3.4-9.1,4.4
		c-0.301,2-0.7,4.2-1.101,6.5c4.7-1.2,9.101-3.2,13.101-5.9C138.8,52.7,140.2,51.7,141.5,50.6z"/>
	<path fill="#DDDDDD" d="M142.9,40.8c0.1-0.6,0.1-1.1,0.1-1.6c0-1.8-0.8-3.7-2.4-5.1c-0.1,0.2-0.3,0.4-0.399,0.6
		c-2.4,3.5-5.4,6.5-8.8,8.8c-1.601,1.1-3.2,2-4.9,2.7c-0.3,1.7-0.7,4-1.1,6.8c3.199-1.1,6.199-2.5,9.1-4.4
		C137.6,46.5,140.5,43.8,142.9,40.8z"/>
	<path fill="#EEEEEE" d="M140.2,34.8c0.1-0.2,0.3-0.4,0.399-0.6c-0.8-0.7-1.8-1.2-3.1-1.5c0,0-2.6,4.5-10.6,10.6c0,0-0.2,1.1-0.5,3
		c1.699-0.8,3.399-1.7,4.899-2.7C134.8,41.3,137.8,38.3,140.2,34.8z"/>
</g>
<path fill="#FFFFFF" d="M127.1,77.9c-4.6,31.6-6.8,31.8-7.3,33.899c-0.5,2.101-2.5,5.7-5.1,5.5c0,0-14.3-2.2-43.5-7
	S32.9,97.2,30.3,95.8c-2.6-1.399-3.2-1.899-3.7-4.6c-2.1,8.3,70.9,22.6,83.8,24.8c4.699-0.4,5.899-1.2,8.199-7.5
	c2.5-7,9.4-57,9.2-57.4c0.2-4.1,1.2-6.7-3.8-8.3c-5.9-2.1-46.8-8.8-49.2-9c-0.2-3.9-0.4-4.5-2.9-9.6C65.9,20.8,1,13,2.2,12.2
	c4.1-0.3,69.4,7.7,72,10c2.6,2.4,3.399,9.5,3.399,9.3c16.7,1.2,48.4,8.7,48.4,8.7c3.8,1.3,4.4,5.4,4.3,6.5
	C130.4,46.7,131.7,46.2,127.1,77.9z"/>
<g>
	<path fill="#FFFFFF" d="M1.2,12.8C0,13.5,2.9,23.3,5,25.2c0.5,0.8,2.1,1.6,4.2,2.3L21.4,15C10.9,13.7,2.6,12.7,1.2,12.8z"/>
	<path fill="#FFFFFF" d="M8.1,28.9c0.4,2.8,1.2,5,2.2,6.8l5.4-5.5C11.4,29.4,8.1,28.9,8.1,28.9z"/>
	<path fill="#FFFFFF" d="M21.4,15.1L9.2,27.5c2,0.7,4.5,1.3,7.1,1.9l13-13.3C26.6,15.7,23.9,15.4,21.4,15.1z"/>
	<path fill="#FFFFFC" d="M15.6,30.1l-5.4,5.5c1.1,2.1,2.6,3.6,4.4,4.7l8.8-9C20.8,31,18.1,30.5,15.6,30.1z"/>
	<path fill="#FFFFFC" d="M29.3,16.1l-13,13.3c2.5,0.6,5.1,1.1,7.5,1.5l13.4-13.7C34.6,16.9,31.9,16.5,29.3,16.1z"/>
	<path fill="#FFFEF5" d="M16.3,43.2c0,0-0.2,1.9,0.3,4.3l3.6-3.7C17.9,43.5,16.3,43.2,16.3,43.2z"/>
	<path fill="#FFFEF5" d="M23.4,31.4l-8.8,9c1.9,1.2,4,2,6.4,2.6l10.1-10.3C29.4,32.4,26.5,31.9,23.4,31.4z"/>
	<path fill="#FFFEF5" d="M37.2,17.2L23.8,30.9c3.2,0.6,5.9,1.1,7.5,1.5l13.7-14C42.5,18,39.9,17.6,37.2,17.2z"/>
	<path fill="#FFFDEB" d="M45.1,18.4l-13.7,14c0.9,0.2,1.5,0.4,1.5,0.6c0,0-0.7-0.1-1.8-0.3L21,43c2.3,0.6,4.7,1.1,7.3,1.7l24.5-25.1
		C50.4,19.2,47.8,18.8,45.1,18.4z"/>
	<path fill="#FFFDEB" d="M20.1,43.9l-3.6,3.7c0.4,1.9,1.3,4.1,3.1,6l8.2-8.4C25.7,44.8,22.6,44.3,20.1,43.9z"/>
	<path fill="#FFFCDE" d="M52.9,19.6L28.3,44.7c0.9,0.2,1.8,0.4,2.8,0.7c0,0.1-1.3,0-3.2-0.3l-8.2,8.4c0.2,0.3,0.5,0.5,0.8,0.7
		c1.4,1.2,3.2,2.2,4.6,2.9l35.5-36.3C58.2,20.5,55.6,20.1,52.9,19.6z"/>
	<path fill="#FFFACF" d="M60.6,20.9L25.1,57.2c1.5,0.8,2.7,1.2,2.7,1.1c-0.3,2.2-0.5,4.3-0.8,6.2l41.1-42
		C66.1,21.9,63.6,21.4,60.6,20.9z"/>
	<path fill="#FFF8BD" d="M72.4,23.6c-0.4-0.3-1.9-0.8-4.3-1.3L27,64.4c-0.5,4.1-0.8,7.399-1,10.199L73.9,25.7
		C73.4,24.9,73,24.1,72.4,23.6z"/>
	<path fill="#FFF6A8" d="M73.8,25.7L26,74.6C25.6,79,25.6,82,25.6,84.2L75.7,33C75.6,31.7,75,28.2,73.8,25.7z"/>
	<path fill="#FFF491" d="M75.7,33.4c0,0,0-0.1,0-0.4L25.6,84.2c0.1,3.5,0.5,4.8,0.7,6c0.2,0.8,0.3,1.399,0.5,2l56.5-57.7
		C80.9,34.1,78.4,33.8,75.7,33.4z"/>
	<path fill="#FFF178" d="M83.3,34.4L26.8,92.2c0.4,1.399,1.1,2.3,2.9,3.3c0.4,0.2,1,0.6,1.8,1.1l59.7-61
		C88.7,35.2,86.1,34.8,83.3,34.4z"/>
	<path fill="#FFEE5D" d="M91.2,35.5l-59.7,61c1.3,0.8,3.1,1.9,5.8,3.2l61.7-63C96.6,36.3,94,35.9,91.2,35.5z"/>
	<path fill="#FFEB3F" d="M99,36.7L37.3,99.8c1.7,0.8,3.8,1.7,6.4,2.7l63-64.5C104.5,37.6,101.9,37.2,99,36.7z"/>
	<path fill="#FFEB3F" d="M106.7,38l-63.1,64.5c2.7,1,6,2,9.8,3.1l64-65.399C115.1,39.5,111.7,38.8,106.7,38z"/>
	<path fill="#FFDA33" d="M123.9,41.9c-1.4-0.3-2.4-0.9-6.5-1.8l-64,65.4c3.1,0.8,6.6,1.6,10.5,2.4l62.9-64.3
		C126.2,42.8,125.2,42.2,123.9,41.9z"/>
	<path fill="#FFC927" d="M128.1,47.2c0.101-0.7-0.199-2.4-1.3-3.7l-62.9,64.3c1.8,0.4,3.7,0.7,5.8,1c1.8,0.3,3.5,0.601,5.2,0.8
		L127.6,55.7C128.6,47.1,128.1,47.2,128.1,47.2z"/>
	<path fill="#FFB71A" d="M127.5,55.9l-52.7,53.9c4,0.601,7.7,1.2,11,1.8L125.5,71C126.5,64.2,127.1,59.3,127.5,55.9z"/>
	<path fill="#FFA40D" d="M85.8,111.5c4.2,0.7,7.8,1.3,11,1.8L123.1,86.4c0.4-2.601,0.9-5.5,1.301-8.801
		c0.399-2.399,0.699-4.6,1-6.699L85.8,111.5z"/>
	<path fill="#FF9200" d="M107.9,115.1L120.3,102.4c0.7-3.4,1.601-8.4,2.8-16L96.8,113.3C101.6,114.1,105.3,114.7,107.9,115.1z"/>
	<path fill="#FF9200" d="M113.1,115.9c2.601,0.199,4.601-3.301,5-5.301c0.301-1.199,0.9-1.8,2.2-8.199L107.9,115.1
		C111.4,115.6,113.1,115.9,113.1,115.9z"/>
</g>
<path d="M123.8,77.5c-3.8,25.4-5.399,29.9-6.1,31.8c-0.101,0.4-0.3,0.7-0.3,1.101c-0.4,1.699-2.2,4.899-4.301,4.699
	c0.101,0-43.399-7-43.399-7C44.5,104.1,35,97.9,31.4,95.6C30.8,95.2,30.4,94.9,30,94.7c-2.3-1.2-2.5-2.3-3-4.8
	c0-0.2-0.1-0.4-0.1-0.601c-0.5-2.399-1.5-6.899,1.6-31.1H27l0.3-0.5c0.2-0.1,0.4-0.2,0.5-0.1c-0.5-0.1-4.3-1.7-6.8-3.9
	c-4.7-4-4-10.3-4-10.3L16.1,44c15,2.6,15.2,2.3,15.5,1.9l0.3-0.3l-0.1-0.4l-0.1-0.4l-0.4-0.1c-1.9-0.5-3.7-0.9-5.5-1.3
	c-8.5-1.9-15.2-3.3-17-14.6l-1,0.8c0.1,0,0.1,0,24.9,4.1l1.2,0.2l-0.3-1.1c-0.2-0.7-0.9-0.9-8-2.3c-6.9-1.3-18.5-3.5-20-5.7
	l-0.1-0.1l-0.1-0.1c-1.9-1.7-4.3-10.2-3.8-11.3l-0.1,0.1l-0.3,0.1c4-0.3,67.7,8.4,70.7,10.7c2.1,1.8,3,8.2,3.1,9.2l0.6-0.7l0.8,0.4
	l-0.8,1.1c36.9,4.9,43.4,7,46.6,8.1c0.5,0.2,1,0.3,1.5,0.5c3.2,0.7,3.7,3.6,3.7,4.5l-0.101,1l1-0.2l-0.6-0.1
	c-0.2-0.2-0.3-0.4-0.3-0.4C127.5,47.9,127.7,51.1,123.8,77.5z M128.9,47.3c0.1-1.3-0.5-5.2-4.801-6.1c-0.399-0.1-0.8-0.2-1.399-0.4
	c-3.2-1-9.8-3.2-46.8-8.1l-1.5-0.2l0.7,1.3l0.2,0.4h0.5h0.5l0.2-0.5c0.2-0.6-0.9-8.2-3.5-10.6c-3-2.7-68.2-11.3-71.8-11H1l-0.2,0.1
	c-0.4,0.2-0.6,0.6-0.6,1.2C-0.1,16,2.5,24,4.5,25.7l-0.1-0.2C6,28.2,14.8,30,25.3,32c3.2,0.6,6.5,1.2,7,1.5c0,0-0.2-0.1-0.2-0.3
	l0.8-0.9L8.2,28.1h0.1l-1.2-0.4L7.3,29c2,12.2,9.4,13.9,18.1,15.8c1.8,0.4,3.6,0.8,5.5,1.3l-0.5-0.5l0.1-0.6
	c0.1-0.2,0.4-0.3,0.5-0.3c-0.9,0.1-9.4-1.3-14.5-2.2l-0.8-0.1l-0.1,0.8c0,0.3-0.8,7.1,4.5,11.7c2.4,2,7.2,4.5,8,4.2l0.4-0.2v-0.5
	L27,58.1c-3.2,24.4-2.2,28.9-1.6,31.6c0,0.2,0.1,0.399,0.1,0.6c0.5,2.601,0.8,4.3,3.8,5.8c0.3,0.2,0.7,0.4,1.3,0.801
	c3.7,2.3,13.4,8.6,38.9,12.699l43.5,7c3.2,0.301,5.4-3.699,5.9-5.899c0.1-0.3,0.199-0.601,0.3-0.9c0.7-1.899,2.3-6.5,6.1-32.1
	c4.5-30,3.7-30.7,3.3-31.1l-0.3-0.3l-0.399,0.1L128.9,47.3z"/>
<path fill="#FFFFFF" d="M127.6,78.2c-4.6,31.6-7.3,33.7-8.399,35.6c-1.5,2.601-3.8,3.9-5.101,4.101c-1.3,0.1-8,1.399-47.899-8.2
	c-28.5-6.7-37.9-12-39.6-17c7.9,9.1,64.9,20.1,82.3,21.399c3.699-0.1,5.199,0.5,8.199-5.5C121.8,99.3,127.4,51.4,127.2,51
	c0.2-4.1,1.1-6.7-2.9-8.9c-2.6-1.3-16.899-4.5-29-6.5c-9.2-1.6-15.5-2-20.2-2.5c-0.1-1.8-1.3-7.4-3.7-10.9c4.1,1.7,4.6,9.7,4.7,9.6
	c0.101-0.8,18,1.8,31.5,3.3c16.5,2.2,20.4,3.9,22.4,5.8s2.1,4,2,6.4C131.7,49.5,132.2,46.6,127.6,78.2z"/>
<text transform="matrix(1 0 0 1 32.7002 84.5)" font-family="'MyriadPro-Regular'" font-size="48">Test</text>
</svg>
